<svg xmlns="http://www.w3.org/2000/svg" width="32" height="32" viewBox="0 0 32 32">
    <path d="M136-824zm-12.444 16a3.424 3.424 0 0 1-2.511-1.044 3.424 3.424 0 0 1-1.045-2.512v-24.889a3.424 3.424 0 0 1 1.044-2.511 3.424 3.424 0 0 1 2.512-1.044H136a1.72 1.72 0 0 1 1.267.511 1.72 1.72 0 0 1 .511 1.267 1.721 1.721 0 0 1-.511 1.267 1.721 1.721 0 0 1-1.267.511h-12.444v24.889h24.889V-824a1.72 1.72 0 0 1 .511-1.267 1.72 1.72 0 0 1 1.267-.511 1.72 1.72 0 0 1 1.267.511A1.72 1.72 0 0 1 152-824v12.444a3.424 3.424 0 0 1-1.044 2.511 3.424 3.424 0 0 1-2.512 1.045zm1.778-7.111h21.333L140-824l-5.333 7.111-4-5.333zm19.556-17.778h-1.778a1.72 1.72 0 0 1-1.267-.511 1.72 1.72 0 0 1-.511-1.267 1.72 1.72 0 0 1 .511-1.267 1.72 1.72 0 0 1 1.267-.511h1.778v-1.778a1.72 1.72 0 0 1 .511-1.267 1.72 1.72 0 0 1 1.267-.511 1.72 1.72 0 0 1 1.267.511 1.72 1.72 0 0 1 .511 1.267v1.778h1.778a1.72 1.72 0 0 1 1.267.511 1.72 1.72 0 0 1 .511 1.267 1.72 1.72 0 0 1-.511 1.267 1.72 1.72 0 0 1-1.267.511h-1.778v1.778a1.72 1.72 0 0 1-.511 1.267 1.72 1.72 0 0 1-1.267.511 1.72 1.72 0 0 1-1.267-.511 1.72 1.72 0 0 1-.511-1.267z" transform="translate(-120 840)" style="fill:#8c9fa7"/>
</svg>
