<svg xmlns="http://www.w3.org/2000/svg" width="34" height="34" viewBox="0 0 34 34">
    <g data-name="Group 3538">
        <g data-name="Rectangle 693" transform="translate(3 3)" style="fill:rgba(0,0,0,.6);stroke:#f7f7f7;stroke-linecap:round;stroke-width:3px">
            <rect width="28" height="28" rx="14" style="stroke:none"/>
            <rect x="-1.5" y="-1.5" width="31" height="31" rx="15.5" style="fill:none"/>
        </g>
        <path d="m259.473-699.865-3.632 3.632a.724.724 0 0 1-.554.232.806.806 0 0 1-.554-.255.775.775 0 0 1-.244-.565.775.775 0 0 1 .244-.565l3.61-3.61-3.632-3.632a.736.736 0 0 1-.233-.565.817.817 0 0 1 .255-.565.775.775 0 0 1 .567-.242.775.775 0 0 1 .565.244l3.61 3.632 3.632-3.632a.775.775 0 0 1 .565-.244.775.775 0 0 1 .565.244.775.775 0 0 1 .244.565.775.775 0 0 1-.244.565l-3.632 3.632 3.632 3.632a.763.763 0 0 1 .244.554.763.763 0 0 1-.244.554.775.775 0 0 1-.565.244.775.775 0 0 1-.565-.244z" transform="translate(-242.478 718)" style="fill:#fff"/>
    </g>
</svg>
