<svg xmlns="http://www.w3.org/2000/svg" width="17" height="17" viewBox="0 0 17 17">
    <path d="m8.5 9.69 2.465 2.465a.806.806 0 0 0 .6.234.806.806 0 0 0 .595-.234.806.806 0 0 0 .234-.6.806.806 0 0 0-.234-.6L9.69 8.5l2.465-2.465a.806.806 0 0 0 .234-.595.806.806 0 0 0-.234-.6.806.806 0 0 0-.595-.234.806.806 0 0 0-.6.234L8.5 7.31 6.035 4.845a.806.806 0 0 0-.595-.234.806.806 0 0 0-.6.234.806.806 0 0 0-.234.6.806.806 0 0 0 .234.595L7.31 8.5l-2.465 2.465a.806.806 0 0 0-.234.6.806.806 0 0 0 .234.6.806.806 0 0 0 .6.234.806.806 0 0 0 .595-.234zm0 7.31a8.277 8.277 0 0 1-3.315-.669 8.582 8.582 0 0 1-2.7-1.817 8.582 8.582 0 0 1-1.817-2.7A8.277 8.277 0 0 1 0 8.5a8.276 8.276 0 0 1 .669-3.315 8.582 8.582 0 0 1 1.817-2.7 8.583 8.583 0 0 1 2.7-1.817A8.276 8.276 0 0 1 8.5 0a8.276 8.276 0 0 1 3.315.669 8.583 8.583 0 0 1 2.7 1.817 8.583 8.583 0 0 1 1.817 2.7A8.277 8.277 0 0 1 17 8.5a8.277 8.277 0 0 1-.669 3.315 8.582 8.582 0 0 1-1.817 2.7 8.582 8.582 0 0 1-2.7 1.817A8.277 8.277 0 0 1 8.5 17z"/>
</svg>
