<svg xmlns="http://www.w3.org/2000/svg" width="20" height="20" viewBox="0 0 20 20">
    <g data-name="Group 9108">
        <g data-name="Rectangle 2942" style="stroke:transparent;fill:transparent">
            <path style="stroke:none" d="M0 0h20v20H0z"/>
            <path style="fill:none" d="M.5.5h19v19H.5z"/>
        </g>
        <g data-name="Component 255 – 143">
            <path style="fill:transparent" d="M0 0h20v20H0z"/>
            <path d="M1.017 8.1a8.9 8.9 0 0 1 3.234-5.112A9.018 9.018 0 0 1 10.007 1a9 9 0 0 1 5.753 1.991A8.869 8.869 0 0 1 18.982 8.1a.547.547 0 0 1-.116.5.592.592 0 0 1-.477.22.623.623 0 0 1-.378-.12.525.525 0 0 1-.208-.328 7.659 7.659 0 0 0-2.8-4.446 7.84 7.84 0 0 0-5-1.722 7.84 7.84 0 0 0-5 1.722 7.66 7.66 0 0 0-2.8 4.446A.526.526 0 0 1 2 8.7a.646.646 0 0 1-.38.118.606.606 0 0 1-.479-.219.538.538 0 0 1-.124-.499zm.019 4.014a.5.5 0 0 1 .106-.5.6.6 0 0 1 .48-.224.655.655 0 0 1 .378.11.507.507 0 0 1 .214.314 8.611 8.611 0 0 0 .41 1.3 6.6 6.6 0 0 0 .644 1.207.513.513 0 0 1 .071.363.6.6 0 0 1-.178.342.573.573 0 0 1-.489.183.6.6 0 0 1-.441-.267 9.369 9.369 0 0 1-.712-1.374 9.923 9.923 0 0 1-.482-1.456zm3.97 4.76a.559.559 0 0 1 .347-.188.5.5 0 0 1 .371.088 7.733 7.733 0 0 0 1.214.629 8.239 8.239 0 0 0 1.31.413.518.518 0 0 1 .319.2.618.618 0 0 1 .118.375.58.58 0 0 1-.222.469.56.56 0 0 1-.508.116 10.192 10.192 0 0 1-1.481-.477 9.556 9.556 0 0 1-1.389-.7.591.591 0 0 1-.27-.438.564.564 0 0 1 .191-.489zm6.3 1.523a.669.669 0 0 1 .115-.384.473.473 0 0 1 .318-.207 7.521 7.521 0 0 0 1.311-.406 8.531 8.531 0 0 0 1.22-.626.527.527 0 0 1 .382-.089.617.617 0 0 1 .356.189.559.559 0 0 1 .178.48.578.578 0 0 1-.278.445 9.549 9.549 0 0 1-1.389.7 10.191 10.191 0 0 1-1.481.477.544.544 0 0 1-.5-.109.579.579 0 0 1-.229-.467zm5.444-4.068a7.661 7.661 0 0 0 .636-1.2 8.019 8.019 0 0 0 .418-1.3.521.521 0 0 1 .21-.318.628.628 0 0 1 .376-.121.591.591 0 0 1 .474.22.545.545 0 0 1 .118.5 10.816 10.816 0 0 1-.471 1.467 7.6 7.6 0 0 1-.723 1.371.6.6 0 0 1-.446.272.572.572 0 0 1-.486-.173.629.629 0 0 1-.192-.352.472.472 0 0 1 .087-.368zM5.5 10.1a.58.58 0 0 1 .173-.431.6.6 0 0 1 .436-.171h6.058L9.562 6.936a.579.579 0 0 1 0-.856.612.612 0 0 1 .438-.195.579.579 0 0 1 .439.18l3.554 3.51a.73.73 0 0 1 .217.525.71.71 0 0 1-.222.522l-3.535 3.5a.614.614 0 0 1-.438.19.6.6 0 0 1-.439-.185.625.625 0 0 1-.191-.426.555.555 0 0 1 .181-.426l2.601-2.575H6.108a.594.594 0 0 1-.436-.171.582.582 0 0 1-.172-.429z"/>
        </g>
    </g>
</svg>
