<svg xmlns="http://www.w3.org/2000/svg" width="20" height="24" viewBox="0 0 20 24">
    <path data-name="Union 14" d="M-6140.656-8248a2.211 2.211 0 0 1-2.344-2.254v-19.492a2.225 2.225 0 0 1 2.344-2.254h10.725l.513.494h.031v.029l6.388 6.145v15.078a2.226 2.226 0 0 1-2.346 2.254zm-1.424-21.746v19.492a1.321 1.321 0 0 0 1.424 1.372h15.311a1.338 1.338 0 0 0 1.426-1.372v-14.713l-.035-.033h-4.011a2.207 2.207 0 0 1-2.344-2.246v-3.867h-10.343a1.334 1.334 0 0 0-1.428 1.367zm12.692 2.5a1.316 1.316 0 0 0 1.424 1.364h3.093l-4.518-4.348zm-5.208 12.72a.264.264 0 0 1-.087-.2.277.277 0 0 1 .264-.287.243.243 0 0 1 .162.057 1.9 1.9 0 0 0 1.266.494c.808 0 1.065-.435 1.065-.781 0-1.164-2.676-.521-2.676-2.132 0-.745.662-1.254 1.551-1.254a2.237 2.237 0 0 1 1.449.479.271.271 0 0 1 .1.2.277.277 0 0 1-.266.272.25.25 0 0 1-.162-.062 1.825 1.825 0 0 0-1.158-.393c-.542 0-.928.291-.928.719 0 1.018 2.676.434 2.676 2.121 0 .656-.446 1.329-1.665 1.329a2.345 2.345 0 0 1-1.595-.562zm-4.808-1.777a2.257 2.257 0 0 1 2.323-2.335 1.98 1.98 0 0 1 1.512.644.3.3 0 0 1 .072.194.27.27 0 0 1-.263.272.234.234 0 0 1-.189-.089 1.531 1.531 0 0 0-1.132-.521 1.736 1.736 0 0 0-1.742 1.835 1.74 1.74 0 0 0 1.742 1.838 1.5 1.5 0 0 0 1.132-.516.25.25 0 0 1 .189-.087.269.269 0 0 1 .263.276.294.294 0 0 1-.072.188 2.008 2.008 0 0 1-1.512.64 2.261 2.261 0 0 1-2.319-2.336zm10.762 2.3a.5.5 0 0 1-.455-.3l-1.559-3.889a.314.314 0 0 1-.019-.107.309.309 0 0 1 .305-.3.293.293 0 0 1 .27.183l1.463 3.76 1.464-3.76a.287.287 0 0 1 .27-.183.3.3 0 0 1 .305.3.327.327 0 0 1-.019.107l-1.565 3.889a.493.493 0 0 1-.448.3z" transform="translate(6143 8272)" style="fill:#44b058"/>
</svg>
