<svg xmlns="http://www.w3.org/2000/svg" width="20" height="20" viewBox="0 0 20 20">
    <g data-name="Group 3136">
        <path data-name="Rectangle 738" style="fill:transparent" d="M0 0h20v20H0z"/>
        <path d="M20 0v20H0V0zm-9.505 19.382h-.01l-.059.03H10.397l-.059-.03a.018.018 0 0 0-.02 0v.009l-.014.356v.017l.009.01.086.062h.022l.086-.062.011-.013v-.014l-.014-.356a.018.018 0 0 0-.013-.015zm.221-.094h-.012l-.154.077-.008.009v.009l.015.358v.011l.007.006.167.077a.021.021 0 0 0 .024-.007v-.012l-.028-.512a.021.021 0 0 0-.016-.018zm-.6 0a.019.019 0 0 0-.023 0v.012l-.028.512a.019.019 0 0 0 .014.02h.013l.167-.077.008-.007v-.01l.015-.358v-.01l-.008-.007z" style="fill:none"/>
        <g data-name="Group 9007">
            <path style="fill:transparent" d="M0 0h20v20H0z"/>
            <path data-name="Icon / Regular / Shopping / Order_tracking" d="M13.206 19.408a2.385 2.385 0 0 1-.778-1.462H7.251a2.384 2.384 0 0 1-.778 1.462 2.334 2.334 0 0 1-3.107 0 2.382 2.382 0 0 1-.778-1.462H1.07a.752.752 0 0 1-.748-.715V7.059A5.056 5.056 0 0 1 0 5.272 5.273 5.273 0 0 1 3.2.414a5.217 5.217 0 0 1 5.746 1.13 5.273 5.273 0 0 1 1.535 3.728 5.074 5.074 0 0 1-.2 1.43h2.555a.539.539 0 0 1 .534.505V9.3h3.51a1.865 1.865 0 0 1 1.137.41 1.919 1.919 0 0 1 .681 1.009l.013.054 1.247 5.461a1.406 1.406 0 0 1-.235 1.186 1.36 1.36 0 0 1-1.065.529H17.09a2.384 2.384 0 0 1-.778 1.462 2.334 2.334 0 0 1-3.106 0zm.688-3.022a1.509 1.509 0 0 0-.54.711.5.5 0 0 1-.029.09 1.5 1.5 0 1 0 1.435-1.079 1.478 1.478 0 0 0-.866.278zM3.423 17.622a1.5 1.5 0 1 0 1.5-1.513 1.507 1.507 0 0 0-1.5 1.513zm13.568-.757h1.619a.327.327 0 0 0 .262-.1.311.311 0 0 0 .052-.258l-.007-.032-.528-2.311H15.6a.594.594 0 0 1-.436-.19.7.7 0 0 1-.186-.444v-1.72a.707.707 0 0 1 .163-.456.6.6 0 0 1 .421-.215H17.701l-.028-.122a.885.885 0 0 0-.752-.633H13.369V15.7a2.318 2.318 0 0 1 1.329-.459h.062a2.353 2.353 0 0 1 2.23 1.624zm-9.84 0H12.3V7.784H9.819a5.579 5.579 0 0 1-.444.663l-.084.106-3.539 4.182a.668.668 0 0 1-.995.032l-.029-.032L1.39 8.789v8.076h1.3a2.346 2.346 0 0 1 4.462 0zm8.677-3.565h2.363l-.3-1.3h-2.063zM3.617 1.411A4.191 4.191 0 0 0 1.07 5.272a3.985 3.985 0 0 0 .872 2.5L2 7.851l3.237 3.825 3.23-3.817a4.021 4.021 0 0 0 .94-2.389v-.2a4.193 4.193 0 0 0-2.543-3.859 4.169 4.169 0 0 0-3.248 0zM2.826 5.26a2.412 2.412 0 1 1 4.117 1.724 2.384 2.384 0 0 1-1.706.716 2.427 2.427 0 0 1-2.411-2.44zm.962 0a1.449 1.449 0 1 0 1.449-1.465A1.458 1.458 0 0 0 3.788 5.26z"/>
        </g>
    </g>
</svg>
