<svg data-name="Icon / Regular / Shopping / In_stock" xmlns="http://www.w3.org/2000/svg" width="20" height="20" viewBox="0 0 20 20">
    <defs>
        <clipPath id="4g5ex1bkfa">
            <path data-name="Rectangle 2950" style="fill:none" d="M0 0h20v20H0z"/>
        </clipPath>
    </defs>
    <path style="fill:transparent" d="M0 0h20v20H0z"/>
    <g data-name="Component 256 – 2">
        <g data-name="Group 9282" style="clip-path:url(#4g5ex1bkfa)">
            <path data-name="Path 632" d="M13.777 19.6a4.478 4.478 0 0 1-2.2-5.9 4.384 4.384 0 0 1 5.828-2.225A4.465 4.465 0 0 1 15.591 20a4.3 4.3 0 0 1-1.814-.4m-1.519-4.06a3.334 3.334 0 1 0 6.667 0 3.471 3.471 0 0 0-.022-.378 3.393 3.393 0 0 0-1.603-2.519 3.309 3.309 0 0 0-4.567 1.168 3.4 3.4 0 0 0-.47 1.729m-2.614 4.207-.024-.009-.018-.007-.043-.015-.022-.01L.41 15.029A.747.747 0 0 1 0 14.4V5.246A.562.562 0 0 1 .019 5.1a.127.127 0 0 1 .01-.025l.006-.014a.554.554 0 0 1 .038-.091l.016-.022.017-.018a.5.5 0 0 1 .054-.068.292.292 0 0 1 .029-.025l.015-.012.031-.025.015-.012.024-.012.019-.013L9.448.081a.739.739 0 0 1 .632-.02l.043.02 9.152 4.68.02.013.024.012a.194.194 0 0 1 .028.022l.017.015.015.012a.3.3 0 0 1 .031.027.376.376 0 0 1 .037.044l.017.023.009.013a.255.255 0 0 1 .02.028.606.606 0 0 1 .039.091l.016.04a.548.548 0 0 1 .017.093v6.095a.181.181 0 0 1-.3.135 5.569 5.569 0 0 0-.653-.513l-.117-.078V6.408a.183.183 0 0 0-.262-.166l-7.807 3.819a.185.185 0 0 0-.1.166v7.809a.182.182 0 0 0 .265.165.181.181 0 0 1 .241.076 5.7 5.7 0 0 0 .428.652l.084.107-1.312.671-.022.01-.044.015H9.95l-.026.01a.541.541 0 0 1-.135.018.553.553 0 0 1-.136-.018M1.175 14.2l7.807 4a.183.183 0 0 0 .265-.165v-7.808a.185.185 0 0 0-.1-.166l-7.81-3.819a.183.183 0 0 0-.262.166v7.629a.185.185 0 0 0 .1.164M5.086 3.53 2.08 5.067a.185.185 0 0 0 0 .331l7.623 3.73a.18.18 0 0 0 .159 0l3.074-1.5a.185.185 0 0 0 0-.332L5.247 3.529a.18.18 0 0 0-.162 0m4.7-2.4L6.7 2.7a.185.185 0 0 0 0 .331l7.726 3.78a.18.18 0 0 0 .159 0l2.9-1.417a.185.185 0 0 0 0-.331zM13.671 15.4l.429-.428a.181.181 0 0 1 .258 0l.766.786a.181.181 0 0 0 .259 0l1.441-1.472a.181.181 0 0 1 .258 0l.429.43a.186.186 0 0 1 0 .261l-2.13 2.175a.181.181 0 0 1-.259 0l-1.454-1.49a.186.186 0 0 1 0-.261"/>
        </g>
    </g>
</svg>
