<svg xmlns="http://www.w3.org/2000/svg" width="20" height="20" viewBox="0 0 20 20">
    <path data-name="Rectangle 2897" style="fill:transparent" d="M0 0h20v20H0z"/>
    <g data-name="Icon / Regular / Service / Repair_support">
        <path style="fill:transparent" d="M0 0h20v20H0z"/>
        <path data-name="Icon / Regular / Service / Repair_support" d="m14.93 19.12-.039-.037-2.9-2.9a.523.523 0 0 1-.025-.71l.025-.027.315-.314-1.825-1.824-4.951 4.95a2.684 2.684 0 0 1-3.693.1l-.052-.048-.051-.05a2.684 2.684 0 0 1-.05-3.744l.05-.051 4.95-4.951-1.387-1.387-1.977-.299A.52.52 0 0 1 3 7.65l-.026-.03L.62 4.353a.518.518 0 0 1 .028-.645l.025-.028L3.255 1.1a.52.52 0 0 1 .641-.08l.032.021 3.265 2.358a.516.516 0 0 1 .2.3l.008.041.3 1.979 1.168 1.166a5.346 5.346 0 0 1 1.336-4.665l.067-.07.066-.067.063-.063A5.345 5.345 0 0 1 14.12.52a5.368 5.368 0 0 1 2.616.682.52.52 0 0 1 .139.8l-.025.027-2.825 2.821 1.122 1.122 2.827-2.826a.521.521 0 0 1 .783.053l.02.029.019.031a5.349 5.349 0 0 1-5.686 7.861l1.6 1.6.315-.315a.522.522 0 0 1 .709-.025l.027.025 2.9 2.9a1.353 1.353 0 0 1 .038 1.876l-.038.04-1.858 1.858a1.355 1.355 0 0 1-1.876.037zm.463-5.608-2.3 2.3 2.535 2.534a.312.312 0 0 0 .393.04l.025-.019.024-.022 1.858-1.857a.312.312 0 0 0 .021-.418l-.022-.024-2.535-2.534zm-2.9-11.632a4.309 4.309 0 0 0-2.568 3.007 4.333 4.333 0 0 0 .108 2.346.521.521 0 0 1-.1.5l-.027.029L2.47 15.2a1.642 1.642 0 0 0 2.282 2.361l.042-.041 7.437-7.436a.519.519 0 0 1 .369-.153.526.526 0 0 1 .164.026 4.33 4.33 0 0 0 1.368.222 4.307 4.307 0 0 0 4.1-5.637l-.027-.081-.019-.052-2.666 2.668a.521.521 0 0 1-.679.049l-.03-.024-.027-.025L12.92 5.22a.522.522 0 0 1-.025-.709l.025-.027 2.665-2.664-.051-.018a4.321 4.321 0 0 0-3.041.081zm-.343 9.759-.933.933 1.821 1.82.934-.933-1.822-1.82zM1.72 4.103l1.971 2.728 1.929.289a.528.528 0 0 1 .26.119l.03.028 1.51 1.51.934-.933-1.506-1.506a.521.521 0 0 1-.139-.25l-.008-.041-.294-1.927-2.729-1.971zm1.2 12.188a.851.851 0 1 1 .851.851.852.852 0 0 1-.851-.851zm.66 0a.191.191 0 1 0 .191-.191.191.191 0 0 0-.191.191z"/>
    </g>
</svg>
