<svg xmlns="http://www.w3.org/2000/svg" viewBox="0 0 100 41.307" width="100" height="56">
	<path d="M6.64 10.754a1.764 1.764 0 0 1 .025 1.07 1.251 1.251 0 0 1-1.388.971A1.283 1.283 0 0 1 3.84 11.5v-1.393H0v1.1c0 3.211 2.5 4.182 5.2 4.182 2.577 0 4.708-.9 5.055-3.286a6.686 6.686 0 0 0-.025-2.365C9.635 6.726 4.209 5.83 3.788 4.162a1.95 1.95 0 0 1-.025-.747 1.2 1.2 0 0 1 1.313-.971 1.226 1.226 0 0 1 1.338 1.294v.9h3.568V3.61C9.982.473 7.182 0 5.15 0 2.598 0 .541.846.15 3.186a5.135 5.135 0 0 0 .025 1.942C.818 8.041 5.9 8.887 6.64 10.754zm46.46-.025a1.685 1.685 0 0 1 .025 1.046 1.236 1.236 0 0 1-1.388.946 1.262 1.262 0 0 1-1.412-1.294v-1.37h-3.794v1.1c0 3.162 2.478 4.132 5.154 4.132 2.552 0 4.658-.871 5-3.261a6.532 6.532 0 0 0-.025-2.34c-.595-2.987-5.971-3.859-6.368-5.527a1.95 1.95 0 0 1-.025-.747 1.158 1.158 0 0 1 1.288-.946 1.219 1.219 0 0 1 1.313 1.294v.871h3.543v-1c0-3.087-2.775-3.585-4.782-3.585-2.5 0-4.559.846-4.955 3.162a5.009 5.009 0 0 0 .025 1.917c.65 2.914 5.68 3.76 6.401 5.602zM82.755 12l-.2-11.551H86.1v14.19H81L77.4 2.713l.2 11.924h-3.517V.448h5.3zM18.508 1.494l-1.982 13.293h-3.865L15.287.448h6.368l2.626 14.339h-3.84zm20.862 0-2.477 13.293h-3.617L30.823 1.494l-.1 13.294h-3.567l.3-14.339h5.823l1.809 11.2 1.809-11.2h5.823l.322 14.339H39.47zm25.719 11.152a1.27 1.27 0 0 0 1.363-1.046 3.871 3.871 0 0 0 .025-.548V.423h3.617v10.306c0 .274-.025.8-.025.946-.248 2.689-2.354 3.56-4.98 3.56s-4.732-.871-4.98-3.56a5.608 5.608 0 0 1-.025-.946V.423H63.7v10.63a3.873 3.873 0 0 0 .025.548 1.27 1.27 0 0 0 1.364 1.045zm29.832-.149a1.353 1.353 0 0 0 1.462-1.046 2.033 2.033 0 0 0 .025-.548v-2.09h-1.462V6.721H100v3.859a7.467 7.467 0 0 1-.05.946c-.248 2.614-2.5 3.535-5.03 3.535s-4.782-.921-5.03-3.535a7.469 7.469 0 0 1-.05-.946V4.531c0-.249.025-.7.05-.946C90.212.896 92.368.05 94.92.05c2.527 0 4.757.846 5 3.535a6.9 6.9 0 0 1 .025.946V5h-3.617v-.8a2.971 2.971 0 0 0-.05-.548 1.493 1.493 0 0 0-2.849 0 2.962 2.962 0 0 0-.05.672V10.9a4.048 4.048 0 0 0 .025.548 1.416 1.416 0 0 0 1.517 1.052z"/>
	<text transform="translate(0 36.307)" style="font-size:16px; font-weight:bold;"><tspan x="0" y="0">Hybris</tspan></text>
</svg>	