<svg xmlns="http://www.w3.org/2000/svg" width="20" height="20" viewBox="0 0 20 20">
    <g data-name="Group 3136">
        <path data-name="Rectangle 738" style="fill:transparent" d="M0 0h20v20H0z"/>
        <path d="m18.556 11.926-6.627 6.641a1.489 1.489 0 0 1-.5.325 1.524 1.524 0 0 1-.557.109 1.466 1.466 0 0 1-.553-.111 1.555 1.555 0 0 1-.5-.323l-8.377-8.389a1.364 1.364 0 0 1-.329-.468 1.441 1.441 0 0 1-.116-.573V2.492a1.441 1.441 0 0 1 .436-1.051 1.429 1.429 0 0 1 1.054-.44h6.651a1.427 1.427 0 0 1 .575.12 1.626 1.626 0 0 1 .487.324l8.354 8.364a1.377 1.377 0 0 1 .338.5 1.568 1.568 0 0 1 .106.561 1.524 1.524 0 0 1-.11.562 1.367 1.367 0 0 1-.332.494zm-7.453 5.818 6.627-6.647a.292.292 0 0 0 .091-.214.293.293 0 0 0-.091-.214l-8.475-8.47H2.49a.3.3 0 0 0-.214.082.277.277 0 0 0-.086.21v6.615a.372.372 0 0 0 .018.112.208.208 0 0 0 .064.1l8.4 8.429a.3.3 0 0 0 .214.085.3.3 0 0 0 .214-.088zM4.642 5.725a1.044 1.044 0 0 0 .771-.324 1.058 1.058 0 0 0 .32-.77 1.061 1.061 0 0 0-.32-.775 1.043 1.043 0 0 0-.768-.323 1.068 1.068 0 0 0-.777.322 1.047 1.047 0 0 0-.325.772 1.053 1.053 0 0 0 .326.774 1.06 1.06 0 0 0 .772.324zm5.38 4.303z"/>
    </g>
</svg>
