<svg xmlns="http://www.w3.org/2000/svg" width="20" height="20" viewBox="0 0 20 20">
    <g data-name="Group 9108">
        <g data-name="Rectangle 2942" style="stroke:transparent;fill:transparent">
            <path style="stroke:none" d="M0 0h20v20H0z"/>
            <path style="fill:none" d="M.5.5h19v19H.5z"/>
        </g>
        <g data-name="Component 255 – 143">
            <path style="fill:transparent" d="M0 0h20v20H0z"/>
            <path data-name="Union 18" d="M3.718 19.547a.769.769 0 0 1-.745-.578v-.011a.773.773 0 0 1-.023-.112.2.2 0 0 1 0-.027V4.722a.769.769 0 0 1 .729-.77h3.254v-.265A3.267 3.267 0 0 1 10.137.369h.061a3.265 3.265 0 0 1 3.262 3.147v.068l.005.368h3.481l.029.01H17.023a.772.772 0 0 1 .3.3V4.291a.767.767 0 0 1 .073.29V18.769a.769.769 0 0 1-.728.77zm12.72-1.054V5.005h-2.952l.02 1.11a1.37 1.37 0 0 1 .825 1.208v.046a1.37 1.37 0 1 1-1.881-1.268l-.02-1.1H8.006l.021 1.11a1.376 1.376 0 0 1 .823 1.213v.1a1.37 1.37 0 1 1-1.88-1.32l-.02-1.099H4.004v13.489h12.434zM12.434 7.369a.527.527 0 1 0 .527-.527.527.527 0 0 0-.527.527zm-5.478-.008a.527.527 0 0 0 1.053.047v-.07a.528.528 0 0 0-.527-.492.527.527 0 0 0-.526.515zm1.026-3.752v.06l.005.283h4.426l-.006-.351a2.213 2.213 0 0 0-2.212-2.178h-.045a2.213 2.213 0 0 0-2.168 2.186z"/>
        </g>
    </g>
</svg>
