<svg xmlns="http://www.w3.org/2000/svg" width="14" height="14" viewBox="0 0 14 14">
    <path d="M188.576-766a6.809 6.809 0 0 1-4.991-2.034A6.736 6.736 0 0 1 181.54-773a6.741 6.741 0 0 1 2.045-4.966 6.807 6.807 0 0 1 4.991-2.034 6.922 6.922 0 0 1 3.114.728 6.662 6.662 0 0 1 2.443 2.054V-780h1.407v5.708h-5.74v-1.4h3.706a5.5 5.5 0 0 0-2.057-2.13 5.544 5.544 0 0 0-2.876-.778 5.442 5.442 0 0 0-3.987 1.633 5.387 5.387 0 0 0-1.639 3.967 5.387 5.387 0 0 0 1.642 3.967 5.443 5.443 0 0 0 3.987 1.633 5.519 5.519 0 0 0 3.26-1.027 5.424 5.424 0 0 0 2.04-2.707h1.483a6.848 6.848 0 0 1-2.516 3.709 6.876 6.876 0 0 1-4.267 1.425z" transform="translate(-181.54 780)" style="fill:#248be3"/>
</svg>
