<svg data-name="Icon / Regular / Shopping / Shipping" xmlns="http://www.w3.org/2000/svg" width="20" height="20" viewBox="0 0 20 20">
    <path style="fill:transparent" d="M0 0h20v20H0z"/>
    <path d="M14.376 17.032a2.346 2.346 0 0 1-2.321-2.031H7.113a2.341 2.341 0 0 1-4.641 0h-1.43a.73.73 0 0 1-.729-.73V3.646a.73.73 0 0 1 .729-.729h11.25a.73.73 0 0 1 .729.729v1.563h3.42a1.831 1.831 0 0 1 1.75 1.445l1.29 6.7a1.35 1.35 0 0 1-1.356 1.643h-1.43a2.346 2.346 0 0 1-2.32 2.031zm0-3.75a1.4 1.4 0 0 0-.7.187 1.422 1.422 0 0 0-.5.49 1.384 1.384 0 0 0-.154.355 1.362 1.362 0 0 0-.016.687 1.4 1.4 0 1 0 2.068-1.532 1.4 1.4 0 0 0-.698-.187zm-9.584 0a1.4 1.4 0 0 0-.7.187 1.424 1.424 0 0 0-.5.49 1.4 1.4 0 0 0-.206.729 1.435 1.435 0 0 0 .036.313 1.4 1.4 0 1 0 2.068-1.532 1.4 1.4 0 0 0-.698-.187zm9.584-.937a2.347 2.347 0 0 1 2.226 1.614h1.524a.312.312 0 0 0 .333-.4l-.546-2.829h-2.709a.623.623 0 0 1-.62-.625V7.817a.623.623 0 0 1 .62-.625h2.03l-.065-.337a.792.792 0 0 0-.727-.6h-3.42v6.523a2.325 2.325 0 0 1 1.354-.434zm-9.584 0a2.347 2.347 0 0 1 2.226 1.614h4.961v-10H1.355v10h1.211a2.347 2.347 0 0 1 2.226-1.615zm10.621-4.328v1.879h2.338l-.357-1.879z"/>
</svg>
